/* XPM */
static char *_f40d1c270cc449a8d2afe74c7f710f0eZnkVZFEL9hz0ifw[] = {
/* columns rows colors chars-per-pixel */
"64 64 15 1 ",
"  c None",
". c #261B1B",
"X c #2E2D2D",
"o c #54312D",
"O c #543E3B",
"+ c gray32",
"@ c #822E24",
"# c #BA4234",
"$ c #814C46",
"% c #987673",
"& c #DE7C70",
"* c #858484",
"= c #B78E8A",
"- c #A0A0A0",
"; c #FEFFFF",
/* pixels */
"@@@@@@@@@@@@@@@@@@@@@@...              ...@@@@@@@@@@@@@@@@@@@@@@",
"@@OOOOOOOOOOOOOOOOOO@@...              ...@@OOOOOOOOOOOOOOOOOO@@",
"@O$$$$$$$$$$$$$$$$$$O@...              ...@O$$$$$$$$$$$$$$$$$$O@",
"@O$################$O@...              ...@O$################$O@",
"@%$$$$$$$$##$$$$$$$$%@...              ...@%$$$$$$$$##$$$$$$$$%@",
"@%$$$$$$$%#O%$$$$$$$%@...              ...@%$$$$$$$%O#%$$$$$$$%@",
"@$%%%%%%$$#O&%%%%%%$o@...              ...@o$%%%%%%&O#$$%%%%%%$@",
"@$%%%O=%%$#O&%%=O%%%o@...              ...@o%%%O=%%&O#$%%=O%%%$@",
"@$%%=XO%%$#O&%%OX=%%o@...              ...@o%%=XO%%&O#$%%OX=%%$@",
"@$%=O;X=%$#O&%=*;O=%o@...              ...@o%=O;*=%&O#$%=X;O=%$@",
"@$%=O-XO%$#O&%O*+O=%o@...              ...@o%=O+*O%&O#$%OX-O=%$@",
"@$%=OXX=%$#O&%=OXO=%o@...              ...@o%=OXO=%&O#$%=XXO=%$@",
"@$%==OO=%$#O&%=OO==%o@...              ...@o%==OO=%&O#$%=OO==%$@",
"@$%%===%%$#O&%%===%%o@...              ...@o%%===%%&O#$%%===%%$@",
"@$%&&&&&&%#O%&&&&&&%o@...              ...@o%&&&&&&%O#%&&&&&&%$@",
"@$$$$$$$$%#O%$$$$$$$%@...              ...@%$$$$$$$%O#%$$$$$$$$@",
"@OOOOOOOOO#OOOOOOOOOO@...              ...@OOOOOOOOOO#OOOOOOOOO@",
"@OOOOOOOOO#OOOOOOOOOO@...              ...@OOOOOOOOOO#OOOOOOOOO@",
"@%$$$$$$$$#O$$$$$$$$%@...              ...@%$$$$$$$$O#$$$$$$$$%@",
"@%$$$$$$$%#O%$$$$$$$o@...              ...@o$$$$$$$%O#%$$$$$$$%@",
"@$%%%%%%%$#O&%%%%%%$o@...              ...@o$%%%%%%&O#$%%%%%%%$@",
"@$%%%O=%%$#O&%%=O%%%o@...              ...@o%%%O=%%&O#$%%=O%%%$@",
"@$%%=XO%%$#O&%%OX=%%o@...              ...@o%%=XO%%&O#$%%OX=%%$@",
"@$%=O;XO%$#O&%O*;O=%o@...              ...@o%=O;*O%&O#$%OX;O=%$@",
"@$%=O-XO%$#O&%O*+O=%o@...              ...@o%=O+*O%&O#$%OX-O=%$@",
"@$%=OXO=%$#O&%=OXO=%o@...              ...@o%=OXO=%&O#$%=OXO=%$@",
"@$%%=O==%$#O&%==O=%%o@...              ...@o%%=O==%&O#$%==O=%%$@",
"@$&%===%%$#O&%%===%%o@...              ...@o%%===%%&O#$%%===%&$@",
"@$%&&&&&&%#O$&&&&&&%o@...              ...@o%&&&&&&$O#%&&&&&&%$@",
"@%$$$$$$$$#O%$$$$$$$%@...              ...@%$$$$$$$%O#$$$$$$$$%@",
"@O........#O.........@...              ...@.........O#........O@",
"@O........#O.........@...              ...@.........O#........O@",
"@%$$$$$$$$#O%$$$$$$$%@...              ...@%$$$$$$$%O#$$$$$$$$%@",
"@$%$$$$$$%#O%$$$$$$%o@...              ...@o%$$$$$$%O#%$$$$$$%$@",
"@$%%%%%%%$#O&%%%%%%$o@...              ...@o$%%%%%%&O#$%%%%%%%$@",
"@$%%=OO%%$#O&%%OO=%%o@...              ...@o%%=OO%%&O#$%%OO=%%$@",
"@$%%OXO=%$#O&%=OXO%%o@...              ...@o%%OXO=%&O#$%=OXO%%$@",
"@$%=O;XO%$#O&%O*;O=%o@...              ...@o%=O;*O%&O#$%OX;O=%$@",
"@$%=O-XO%$#O&%O*+O=%o@...              ...@o%=O+*O%&O#$%OX-O=%$@",
"@$%==XO=%$#O&%=OX==%o@...              ...@o%==XO=%&O#$%=OX==%$@",
"@$%%=O==%$#O&%==O=%%o@...              ...@o%%=O==%&O#$%==O=%%$@",
"@$&%===%%$#O&%%===%%o@...              ...@o%%===%%&O#$%%===%&$@",
"@%%&&&&&&%#O$&&&&&&&o@...              ...@o&&&&&&&$O#%&&&&&&%%@",
"@%$$$$$$$$#O$$$$$$$$%@...              ...@%$$$$$$$$O#$$$$$$$$%@",
"@OOOOOOOOO#OOOOOOOOOO@...              ...@OOOOOOOOOO#OOOOOOOOO@",
"@OOOOOOOOO#OOOOOOOOOO@...              ...@OOOOOOOOOO#OOOOOOOOO@",
"@$$$$$$$$%#O%$$$$$$$%@...              ...@%$$$$$$$%O#%$$$$$$$$@",
"@$%$$$$$$%#O%$$$$$$%o@...              ...@o%$$$$$$%O#%$$$$$$%$@",
"@$%%%%%%%$#O&%%%%%%$o@...              ...@o$%%%%%%&O#$%%%%%%%$@",
"@$%%=OO%%$#O&%%OO=%%o@...              ...@o%%=OO%%&O#$%%OO=%%$@",
"@$%=OXX=%$#O&%=OXO=%o@...              ...@o%=OXO=%&O#$%=XXO=%$@",
"@$%=O;XO%$#O&%O*;O=%o@...              ...@o%=O;*O%&O#$%OX;O=%$@",
"@$%=O-X=%$#O&%=*+O=%o@...              ...@o%=O+*=%&O#$%=X-O=%$@",
"@$%==XO=%$#O&%=OX==%o@...              ...@o%==XO=%&O#$%=OX==%$@",
"@$%%=O=%%$#O&%%=O=%%o@...              ...@o%%=O=%%&O#$%%=O=%%$@",
"@$&%===%%$#O%&%===%%o@...              ...@o%%===%&%O#$%%===%&$@",
"@%&&&&&&&%#O$&&&&&&&%@...              ...@%&&&&&&&$O#%&&&&&&&%@",
"@%$$$$$$$$#O$$$$$$$$%@...              ...@%$$$$$$$$O#$$$$$$$$%@",
"@OOOOOOOOO#OOOOOOOOOO@...              ...@OOOOOOOOOO#OOOOOOOOO@",
"@OOOOOOOOO##OOOOOOOOO@...              ...@OOOOOOOOO##OOOOOOOOO@",
"@O$################$O@...              ...@O$################$O@",
"@O$$$$$$$$$$$$$$$$$$O@...              ...@O$$$$$$$$$$$$$$$$$$O@",
"@@OOOOOOOOOOOOOOOOOO@@...              ...@@OOOOOOOOOOOOOOOOOO@@",
"@@@@@@@@@@@@@@@@@@@@@@...              ...@@@@@@@@@@@@@@@@@@@@@@"
};
