/* XPM */
static char *_e91a4ea0e0548ab80bf64862b67f329ljXCpQx45LD1g1Ff[] = {
/* columns rows colors chars-per-pixel */
"64 64 9 1 ",
"  c None",
". c #261B1B",
"X c #543E3B",
"o c #BA4234",
"O c #814C46",
"+ c #987673",
"@ c #DE7C70",
"# c #858484",
"$ c #B78E8A",
/* pixels */
"...........                                          ...........",
"..X........                                          ........X..",
".OO........                                          ........OO.",
".oo........                                          ........oo.",
".OO........                                          ........OO.",
".OO........                                          ........OO.",
".O+........                                          ........+O.",
".++........                                          ........++.",
".+$........                                          ........$+.",
".+X........                                          ........X+.",
".+#........                                          ........#+.",
".+X........                                          ........X+.",
".+$........                                          ........$+.",
".+$........                                          ........$+.",
".@@........                                          ........@@.",
".OO........                                          ........OO.",
".XX........                                          ........XX.",
".XX........                                          ........XX.",
".OO........                                          ........OO.",
".OO........                                          ........OO.",
".O+........                                          ........+O.",
".++........                                          ........++.",
".+$........                                          ........$+.",
".+#........                                          ........#+.",
".+#........                                          ........#+.",
".+X........                                          ........X+.",
".+$........                                          ........$+.",
".+$........                                          ........$+.",
".@@........                                          ........@@.",
".OO........                                          ........OO.",
"...........                                          ...........",
"...........                                          ...........",
".OO........                                          ........OO.",
".OO........                                          ........OO.",
".++........                                          ........++.",
".+$........                                          ........$+.",
".+X........                                          ........X+.",
".+#........                                          ........#+.",
".+#........                                          ........#+.",
".+X........                                          ........X+.",
".+$........                                          ........$+.",
".+$........                                          ........$+.",
".@@........                                          ........@@.",
".OO........                                          ........OO.",
".XX........                                          ........XX.",
".XX........                                          ........XX.",
".OO........                                          ........OO.",
".+O........                                          ........O+.",
".++........                                          ........++.",
".+$........                                          ........$+.",
".+X........                                          ........X+.",
".+#........                                          ........#+.",
".+X........                                          ........X+.",
".+$........                                          ........$+.",
".+$........                                          ........$+.",
".+$........                                          ........$+.",
".@@........                                          ........@@.",
".OO........                                          ........OO.",
".XX........                                          ........XX.",
".XX........                                          ........XX.",
".Oo........                                          ........oO.",
".OO........                                          ........OO.",
"..X........                                          ........X..",
"...........                                          ..........."
};
