/* XPM */
static char *b257e36f8c6348b0f7cf7d9b18dbedf6i5gV12U9F0OqynQU[] = {
/* columns rows colors chars-per-pixel */
"64 64 10 1 ",
"  c None",
". c #261B1B",
"X c #2E2D2D",
"o c #543E3B",
"O c #BA4234",
"+ c #814C46",
"@ c #987673",
"# c #DE7C70",
"$ c #858484",
"% c #B78E8A",
/* pixels */
"................                                ................",
".ooooooooo......                                ......ooooooooo.",
".+++++++++......                                ......+++++++++.",
".OOOOOOOOO......                                ......OOOOOOOOO.",
".++++O++++......                                ......++++O++++.",
".++++o++++......                                ......++++o++++.",
".+@@@o+@@@......                                ......@@@+o@@@+.",
".@@@@o@@@@......                                ......@@@@o@@@@.",
".@%%@o@%%@......                                ......@%%@o@%%@.",
".@oo@o@oo@......                                ......@oo@o@oo@.",
".@X$@o@X$@......                                ......@$X@o@$X@.",
".@oo@o@oo@......                                ......@oo@o@oo@.",
".@%%@o@%%@......                                ......@%%@o@%%@.",
".@%%#o@%%@......                                ......@%%@o#%%@.",
".###@o@##@......                                ......@##@o@###.",
".++++o++++......                                ......++++o++++.",
".ooooooooo......                                ......ooooooooo.",
".ooooooooo......                                ......ooooooooo.",
".++++o++++......                                ......++++o++++.",
".+++@o@+++......                                ......+++@o@+++.",
".+@@@o+@@@......                                ......@@@+o@@@+.",
".@@@@o@@@@......                                ......@@@@o@@@@.",
".@%%@o@%%@......                                ......@%%@o@%%@.",
".@X$@o@X$@......                                ......@$X@o@$X@.",
".@X$@o@X$@......                                ......@$X@o@$X@.",
".@oo@o@oo@......                                ......@oo@o@oo@.",
".@%%@o@%%@......                                ......@%%@o@%%@.",
".@%%#o@%%@......                                ......@%%@o#%%@.",
".###@o@###......                                ......###@o@###.",
".++++o++++......                                ......++++o++++.",
".....o..........                                ..........o.....",
".....o..........                                ..........o.....",
".++++o++++......                                ......++++o++++.",
".+++@o@+++......                                ......+++@o@+++.",
".@@@@o+@@@......                                ......@@@+o@@@@.",
".@%%@o@%%@......                                ......@%%@o@%%@.",
".@oo@o@oo@......                                ......@oo@o@oo@.",
".@X$@o@X$@......                                ......@$X@o@$X@.",
".@X$@o@X$@......                                ......@$X@o@$X@.",
".@oo@o@oo@......                                ......@oo@o@oo@.",
".@%%@o@%%@......                                ......@%%@o@%%@.",
".@%%#o@%%#......                                ......#%%@o#%%@.",
".###@o@###......                                ......###@o@###.",
".++++o++++......                                ......++++o++++.",
".ooooooooo......                                ......ooooooooo.",
".ooooooooo......                                ......ooooooooo.",
".++++o++++......                                ......++++o++++.",
".@++@o@+++......                                ......+++@o@++@.",
".@@@@o+@@@......                                ......@@@+o@@@@.",
".@%%@o@%%@......                                ......@%%@o@%%@.",
".@oo@o@oo@......                                ......@oo@o@oo@.",
".@X$@o@X$@......                                ......@$X@o@$X@.",
".@oo@o@oo@......                                ......@oo@o@oo@.",
".@%%@o@%%@......                                ......@%%@o@%%@.",
".@%%@o@%%@......                                ......@%%@o@%%@.",
".@%%#o@%%#......                                ......#%%@o#%%@.",
".###@o@###......                                ......###@o@###.",
".++++o++++......                                ......++++o++++.",
".ooooooooo......                                ......ooooooooo.",
".ooooOoooo......                                ......ooooOoooo.",
".+OOOOOOO+......                                ......+OOOOOOO+.",
".+++++++++......                                ......+++++++++.",
".ooooooooo......                                ......ooooooooo.",
"................                                ................"
};
